<?xml version="1.0" encoding="utf-8"?>
<!-- Generator: Adobe Illustrator 27.0.0, SVG Export Plug-In . SVG Version: 6.00 Build 0)  -->
<svg version="1.1" xmlns="http://www.w3.org/2000/svg" xmlns:xlink="http://www.w3.org/1999/xlink" x="0px" y="0px"
	 viewBox="0 0 566.93 566.93" style="enable-background:new 0 0 566.93 566.93;" xml:space="preserve">
<style type="text/css">
	.st0{fill:url(#SVGID_1_);}
	.st1{fill:url(#SVGID_00000040561116223606807360000008894378360400732300_);}
	.st2{fill:url(#SVGID_00000134931326216329310170000008591917421780713373_);}
	.st3{fill:url(#SVGID_00000124148321672190950270000011837704928246754181_);}
	.st4{fill:url(#SVGID_00000110437102014330390200000001550161386611872662_);}
	.st5{fill:#326165;}
	.st6{fill:#4B908E;}
	.st7{fill:#72C0B0;}
	.st8{fill:#B8D7D5;}
	.st9{fill:#EEEEEE;}
	.st10{fill:url(#SVGID_00000105402185223297052270000006078904925432722353_);}
	.st11{fill:url(#SVGID_00000168821733101842502370000010572976254267971999_);}
	.st12{fill:url(#SVGID_00000013154903914437661120000010665370424571603622_);}
</style>
<g id="D">
	<g>
		<linearGradient id="SVGID_1_" gradientUnits="userSpaceOnUse" x1="157.3479" y1="466.4016" x2="376.4997" y2="466.4016">
			<stop  offset="0" style="stop-color:#336165"/>
			<stop  offset="0.33" style="stop-color:#4C908F"/>
			<stop  offset="0.67" style="stop-color:#B8D6D5"/>
			<stop  offset="1" style="stop-color:#EFEEEE"/>
		</linearGradient>
		<path class="st0" d="M198.66,517.92c0.02,0.04,0.04,0.06,0.06,0.1c0,0,73.06,32.86,145.75,5.83c7.19-2.67,13.17-7.86,16.97-14.52
			l2.66-4.66l-0.08,0.25c5.34-10.63,12.41-27.6,12.48-43.65c0.07-16.18-3.31-30.79-10.33-45.47
			c-95.52,71.82-166.02-17.52-166.02-17.53c-12.83,18.56-19.99,39.21-19.99,60.93C180.16,480.06,186.75,499.92,198.66,517.92z"/>
		
			<linearGradient id="SVGID_00000049909481769816452170000004527218404946477229_" gradientUnits="userSpaceOnUse" x1="166.4785" y1="371.6318" x2="387.137" y2="185.363">
			<stop  offset="0" style="stop-color:#B8D7D5"/>
			<stop  offset="0.33" style="stop-color:#72C0B0"/>
			<stop  offset="0.6706" style="stop-color:#4B908E"/>
			<stop  offset="1" style="stop-color:#326165"/>
		</linearGradient>
		<path style="fill:url(#SVGID_00000049909481769816452170000004527218404946477229_);" d="M362.67,32.41
			c12.86,18.58,20.03,39.25,20.03,60.99c0,60.39-55.2,112.31-134.32,135.23c-5.35,1.55-10.83,2.98-16.43,4.28
			c-9.59,2.19-19.06,5-28.25,8.47c-34.66,13.1-63.86,32.39-84.61,55.76c-21.56,24.24-34,52.87-34,83.54
			c0,58.82,45.76,110.12,113.63,137.36c-0.02-0.04-0.04-0.06-0.06-0.1c-11.9-18-18.5-37.86-18.5-58.72
			c0-21.72,7.15-42.37,19.99-60.93v0c21.89-31.7,60.33-57.41,108.07-72.42c9.34-2.93,19.06-5.46,29.06-7.54
			c15.62-3.24,30.79-8.41,45.2-15.23c26.29-12.44,48.63-28.69,65.43-47.62c21.56-24.24,34-52.87,34-83.54
			C481.9,111.52,433.62,59.03,362.67,32.41z"/>
		<g>
			
				<linearGradient id="SVGID_00000046319418743225612160000005961190349288567693_" gradientUnits="userSpaceOnUse" x1="2359.5688" y1="143.9185" x2="2600.8064" y2="418.7859" gradientTransform="matrix(-1 0 0 1 2764.8755 0)">
				<stop  offset="0" style="stop-color:#73C1B0;stop-opacity:0.9"/>
				<stop  offset="0.5" style="stop-color:#4C908F;stop-opacity:0"/>
				<stop  offset="1" style="stop-color:#B8D6D5;stop-opacity:0"/>
			</linearGradient>
			<path style="fill:url(#SVGID_00000046319418743225612160000005961190349288567693_);" d="M362.67,32.41
				c70.95,26.62,119.23,79.11,119.23,139.53c0,30.67-12.44,59.29-34,83.54c-12.71,14.32-28.59,27.1-46.95,37.87
				c-20.67,12.12-43.3,20.52-66.71,25.63c-8.94,1.95-17.63,4.26-26.03,6.9l0-92.68C400.39,234.92,409.84,94.68,362.67,32.41z"/>
		</g>
		<g>
			
				<linearGradient id="SVGID_00000074444054138109904950000010508258938947585969_" gradientUnits="userSpaceOnUse" x1="2859.6936" y1="176.1902" x2="3092.531" y2="441.4865" gradientTransform="matrix(-1 0 0 1 3221.5203 0)">
				<stop  offset="0" style="stop-color:#73C1B0;stop-opacity:0"/>
				<stop  offset="0.5" style="stop-color:#4B8F8D;stop-opacity:0"/>
				<stop  offset="1" style="stop-color:#336165;stop-opacity:0.9"/>
			</linearGradient>
			<path style="fill:url(#SVGID_00000074444054138109904950000010508258938947585969_);" d="M119.02,297.03
				c17.48-19.69,40.96-36.49,68.66-49.12c15.11-6.89,30.98-11.93,47.13-15.81c4.58-1.1,9.08-2.3,13.51-3.58v94.65
				c-74.46,2.18-96.79,124.86-49.66,194.76c-67.87-27.24-113.63-78.54-113.63-137.36C85.03,349.9,97.47,321.27,119.02,297.03z"/>
		</g>
		
			<linearGradient id="SVGID_00000149361367816206904050000009406579384275909792_" gradientUnits="userSpaceOnUse" x1="266.9238" y1="475.1646" x2="376.4997" y2="475.1646">
			<stop  offset="0" style="stop-color:#EFEEEE;stop-opacity:0"/>
			<stop  offset="0.215" style="stop-color:#4C908F;stop-opacity:0"/>
			<stop  offset="1" style="stop-color:#336165;stop-opacity:0.9"/>
		</linearGradient>
		<path style="fill:url(#SVGID_00000149361367816206904050000009406579384275909792_);" d="M278.33,534.48
			c20.58,0.43,43.37-2.16,66.13-10.62c7.19-2.67,13.17-7.86,16.97-14.52l2.66-4.66l-0.08,0.25c5.34-10.63,12.41-27.6,12.48-43.65
			c0.07-16.18-3.31-30.79-10.33-45.47c-8.95,43.64-62.75,50.34-87.84,47.1L278.33,534.48z"/>
	</g>
	<ellipse id="Ellipse_1" class="st5" cx="766.89" cy="59.17" rx="43.5" ry="42"/>
	<ellipse id="Ellipse_2" class="st6" cx="766.89" cy="173.17" rx="43.5" ry="42"/>
	<ellipse id="Ellipse_3" class="st7" cx="766.89" cy="287.17" rx="43.5" ry="42"/>
	<ellipse id="Ellipse_4" class="st8" cx="766.89" cy="401.17" rx="43.5" ry="42"/>
	<ellipse id="Ellipse_5" class="st9" cx="766.89" cy="515.17" rx="43.5" ry="42"/>
</g>
<g id="S">
	<g>
		
			<linearGradient id="SVGID_00000114761926251093494880000001564601317629454760_" gradientUnits="userSpaceOnUse" x1="168.8529" y1="145.6764" x2="430.6035" y2="443.9165">
			<stop  offset="0" style="stop-color:#336165"/>
			<stop  offset="0.33" style="stop-color:#4C908F"/>
			<stop  offset="0.67" style="stop-color:#73C1B0"/>
			<stop  offset="1" style="stop-color:#B8D6D5"/>
		</linearGradient>
		<path style="fill:url(#SVGID_00000114761926251093494880000001564601317629454760_);" d="M481.9,380.67
			c0,58.82-45.76,110.12-113.63,137.36c11.95-18.02,18.56-37.92,18.56-58.82c0-58.78-52.31-109.54-128.05-133.35
			c-8.4-2.64-17.09-4.95-26.03-6.9c-23.41-5.1-46.04-13.51-66.71-25.63c-18.36-10.77-34.25-23.55-46.95-37.87
			c-21.56-24.24-34-52.87-34-83.54c0-60.41,48.28-112.91,119.23-139.53c-12.86,18.58-20.03,39.25-20.03,60.99
			c0,60.39,55.2,112.31,134.32,135.23c4.43,1.29,8.93,2.48,13.51,3.58c16.14,3.88,32.02,8.92,47.13,15.81
			c27.7,12.63,51.18,29.43,68.66,49.12C469.46,321.38,481.9,350,481.9,380.67z"/>
		<g>
			
				<linearGradient id="SVGID_00000154425921106663620550000000080680473862692752_" gradientUnits="userSpaceOnUse" x1="205.1023" y1="176.2936" x2="437.9399" y2="441.59">
				<stop  offset="0" style="stop-color:#73C1B0;stop-opacity:0"/>
				<stop  offset="0.5" style="stop-color:#4B8F8D;stop-opacity:0"/>
				<stop  offset="1" style="stop-color:#336165;stop-opacity:0.9"/>
			</linearGradient>
			<path style="fill:url(#SVGID_00000154425921106663620550000000080680473862692752_);" d="M447.9,297.13
				c-17.48-19.69-40.96-36.49-68.66-49.12c-15.11-6.89-30.98-11.93-47.13-15.81c-4.58-1.1-9.08-2.3-13.51-3.58v94.65
				c74.46,2.18,96.79,124.86,49.66,194.76c67.87-27.24,113.63-78.54,113.63-137.36C481.9,350,469.46,321.38,447.9,297.13z"/>
		</g>
		<g>
			
				<linearGradient id="SVGID_00000083091363401220357400000013295790563657536131_" gradientUnits="userSpaceOnUse" x1="-284.5646" y1="143.9185" x2="-43.327" y2="418.7859" gradientTransform="matrix(1 0 0 1 446.2491 0)">
				<stop  offset="0" style="stop-color:#73C1B0;stop-opacity:0.9"/>
				<stop  offset="0.5" style="stop-color:#4C908F;stop-opacity:0"/>
				<stop  offset="1" style="stop-color:#B8D6D5;stop-opacity:0"/>
			</linearGradient>
			<path style="fill:url(#SVGID_00000083091363401220357400000013295790563657536131_);" d="M204.32,32.41
				C133.37,59.03,85.09,111.52,85.09,171.93c0,30.67,12.44,59.29,34,83.54c12.71,14.32,28.59,27.1,46.95,37.87
				c20.67,12.12,43.3,20.52,66.71,25.63c8.94,1.95,17.63,4.26,26.03,6.9l0-92.68C166.6,234.92,157.15,94.68,204.32,32.41z"/>
		</g>
	</g>
</g>
</svg>
